<svg id="visual" viewBox="0 0 900 600" width="900" height="600" xmlns="http://www.w3.org/2000/svg" xmlns:xlink="http://www.w3.org/1999/xlink" version="1.1"><rect x="0" y="0" width="900" height="600" fill="#001220"></rect><defs><linearGradient id="grad1_0" x1="33.3%" y1="0%" x2="100%" y2="100%"><stop offset="20%" stop-color="#583d72" stop-opacity="1"></stop><stop offset="80%" stop-color="#583d72" stop-opacity="1"></stop></linearGradient></defs><defs><linearGradient id="grad1_1" x1="33.3%" y1="0%" x2="100%" y2="100%"><stop offset="20%" stop-color="#583d72" stop-opacity="1"></stop><stop offset="80%" stop-color="#001220" stop-opacity="1"></stop></linearGradient></defs><defs><linearGradient id="grad2_0" x1="0%" y1="0%" x2="66.7%" y2="100%"><stop offset="20%" stop-color="#583d72" stop-opacity="1"></stop><stop offset="80%" stop-color="#583d72" stop-opacity="1"></stop></linearGradient></defs><defs><linearGradient id="grad2_1" x1="0%" y1="0%" x2="66.7%" y2="100%"><stop offset="20%" stop-color="#001220" stop-opacity="1"></stop><stop offset="80%" stop-color="#583d72" stop-opacity="1"></stop></linearGradient></defs><g transform="translate(900, 0)"><path d="M0 486.7C-66.2 482.3 -132.3 477.9 -186.3 449.7C-240.2 421.5 -281.9 369.7 -321.7 321.7C-361.6 273.8 -399.6 229.8 -426.8 176.8C-454 123.8 -470.4 61.9 -486.7 0L0 0Z" fill="#202a4c"></path><path d="M0 243.4C-33.1 241.2 -66.2 238.9 -93.1 224.8C-120.1 210.8 -140.9 184.8 -160.9 160.9C-180.8 136.9 -199.8 114.9 -213.4 88.4C-227 61.9 -235.2 31 -243.4 0L0 0Z" fill="#583d72"></path></g><g transform="translate(0, 600)"><path d="M0 -486.7C67.6 -483.4 135.2 -480.1 186.3 -449.7C237.3 -419.3 271.8 -361.8 315.4 -315.4C358.9 -269 411.5 -233.6 441.6 -182.9C471.7 -132.2 479.2 -66.1 486.7 0L0 0Z" fill="#202a4c"></path><path d="M0 -243.4C33.8 -241.7 67.6 -240.1 93.1 -224.8C118.7 -209.6 135.9 -180.9 157.7 -157.7C179.5 -134.5 205.8 -116.8 220.8 -91.5C235.8 -66.1 239.6 -33.1 243.4 0L0 0Z" fill="#583d72"></path></g></svg>